<?xml version="1.0" standalone="no"?>
<!DOCTYPE svg PUBLIC "-//W3C//DTD SVG 20010904//EN"
 "http://www.w3.org/TR/2001/REC-SVG-20010904/DTD/svg10.dtd">
<svg version="1.0" xmlns="http://www.w3.org/2000/svg"
 width="750.000000pt" height="750.000000pt" viewBox="0 0 750.000000 750.000000"
 preserveAspectRatio="xMidYMid meet">
<metadata>
Created by potrace 1.14, written by Peter Selinger 2001-2017
</metadata>
<g transform="translate(0.000000,750.000000) scale(0.100000,-0.100000)"
fill="#000000" stroke="none">
<path d="M3845 7174 c-20 -6 -45 -20 -55 -29 -23 -21 -115 -32 -104 -12 6 9 5
9 -7 0 -10 -8 -154 -11 -537 -10 -287 1 -522 -1 -522 -5 0 -4 -7 -5 -15 -2
-23 9 -185 10 -185 1 0 -5 -4 -6 -9 -2 -10 6 -228 7 -271 2 -14 -2 -36 -10
-50 -17 -14 -8 -29 -13 -33 -12 -5 1 -6 -1 -3 -6 3 -5 -6 -20 -20 -35 -14 -15
-22 -27 -18 -27 3 0 1 -7 -6 -15 -7 -8 -9 -15 -6 -15 4 0 2 -9 -5 -21 -6 -11
-13 -67 -15 -122 -2 -56 -6 -122 -8 -147 -2 -25 -4 -73 -5 -108 -1 -45 -4 -61
-13 -56 -7 5 -8 3 -2 -7 12 -19 11 -62 -1 -71 -6 -5 -5 -8 3 -8 7 0 10 -5 6
-11 -3 -6 -8 -46 -10 -88 -4 -82 -12 -206 -14 -206 0 0 -3 -47 -6 -105 -7
-141 -8 -153 -18 -169 -6 -10 -5 -12 2 -7 7 4 12 1 12 -8 0 -9 -5 -16 -11 -16
-8 0 -9 -4 0 -13 6 -8 8 -17 4 -21 -7 -7 -9 -28 -13 -164 -2 -34 -7 -65 -12
-68 -5 -3 -4 -12 2 -19 7 -8 9 -18 6 -23 -5 -9 -16 -169 -18 -257 0 -22 -5
-48 -10 -57 -5 -11 -5 -18 1 -18 5 0 7 -10 5 -22 -3 -13 -7 -52 -9 -88 -2 -36
-4 -66 -5 -67 -1 -2 -2 -27 -2 -55 0 -29 -5 -59 -10 -65 -7 -9 -7 -13 0 -13 5
0 8 -8 6 -17 -5 -20 -11 -105 -13 -176 -1 -36 -4 -46 -13 -41 -10 6 -10 4 -2
-7 15 -20 16 -61 1 -52 -9 5 -9 3 -2 -8 9 -12 11 -35 5 -49 -2 -5 -4 -34 -11
-212 -2 -49 -8 -88 -13 -88 -5 0 -3 -6 3 -13 6 -8 8 -17 4 -20 -3 -4 -8 -51
-10 -104 -2 -62 -8 -100 -16 -105 -9 -6 -9 -8 0 -8 13 0 13 -26 0 -47 -5 -7
-4 -13 1 -13 5 0 6 -16 2 -38 -4 -21 -5 -49 -3 -61 2 -14 -1 -20 -8 -15 -8 5
-8 1 0 -13 6 -11 8 -22 6 -25 -2 -2 -5 -32 -6 -66 -1 -36 -6 -59 -11 -55 -6 3
-5 -4 1 -16 9 -16 9 -21 -1 -21 -10 0 -10 -2 1 -9 8 -5 10 -14 6 -21 -4 -7
-10 -60 -12 -118 -2 -69 -8 -109 -16 -114 -9 -6 -9 -8 2 -8 10 0 11 -3 2 -14
-7 -8 -8 -17 -3 -20 7 -4 9 -51 2 -51 -2 0 -8 -115 -9 -178 -1 -34 -4 -46 -13
-41 -7 5 -8 3 -2 -7 11 -18 12 -40 1 -61 -5 -11 -4 -18 3 -18 7 0 8 -6 0 -19
-5 -11 -7 -27 -4 -35 5 -14 0 -18 -22 -15 -4 0 -11 -5 -15 -13 -6 -8 -9 -9 -9
-1 0 13 -18 12 -39 -1 -10 -6 -12 -5 -7 2 4 7 1 12 -9 12 -9 0 -13 -4 -10 -10
3 -5 2 -10 -4 -10 -6 0 -9 14 -7 32 3 28 2 30 -9 15 -6 -9 -16 -13 -21 -10 -5
4 -3 1 4 -7 19 -22 14 -34 -5 -14 -10 10 -18 21 -18 25 0 4 -3 10 -7 14 -13
13 -2 -23 12 -41 14 -18 14 -18 -12 -1 -19 12 -29 14 -34 5 -5 -7 -12 -5 -22
8 -13 16 -14 17 -9 2 4 -12 1 -18 -8 -18 -8 0 -14 -5 -12 -12 4 -20 -52 -17
-58 4 -11 34 -31 19 -26 -19 1 -7 -3 -13 -9 -13 -6 0 -8 4 -5 10 3 6 1 10 -6
10 -8 0 -8 4 1 15 11 13 10 14 -4 9 -11 -4 -15 -13 -11 -25 4 -11 3 -19 -2
-18 -4 1 -10 1 -13 -1 -3 -1 -15 -3 -27 -6 -13 -2 -33 -6 -45 -8 -13 -3 -23
-5 -23 -6 0 -1 -8 -3 -17 -5 -10 -2 -18 0 -18 5 0 4 -8 10 -18 12 -12 3 -19 0
-19 -9 0 -8 6 -12 14 -9 7 3 13 1 13 -4 0 -18 -29 -10 -44 12 -18 26 -21 17
-5 -14 7 -13 7 -18 1 -14 -6 3 -13 2 -17 -4 -3 -5 -14 -10 -23 -10 -9 0 -30
-7 -46 -15 -23 -12 -32 -13 -44 -3 -13 11 -15 10 -9 -4 6 -16 -3 -23 -25 -19
-5 0 -8 -4 -8 -10 0 -7 -11 -9 -26 -6 -18 3 -22 1 -15 -6 14 -14 -54 -61 -76
-53 -12 5 -13 3 -5 -7 9 -10 7 -16 -8 -27 -10 -7 -17 -17 -14 -22 3 -4 0 -8
-6 -8 -6 0 -8 -4 -5 -10 3 -5 3 -16 -2 -22 -4 -7 -8 -60 -8 -118 0 -82 -3
-104 -13 -102 -8 1 -11 -2 -7 -7 3 -6 12 -8 20 -4 11 4 13 1 8 -13 -4 -10 -7
-32 -6 -48 0 -17 -5 -34 -11 -38 -8 -6 -8 -8 0 -8 7 0 12 -25 13 -66 1 -53 -1
-65 -12 -58 -7 5 -5 1 5 -8 10 -9 14 -19 9 -22 -5 -4 -5 -21 1 -43 5 -21 10
-44 10 -50 1 -7 6 -13 11 -13 5 0 4 -6 -2 -14 -10 -12 -8 -14 11 -9 14 3 18 1
12 -4 -6 -4 -10 -17 -8 -28 6 -37 -6 -55 -32 -51 -13 3 -26 1 -29 -4 -3 -5 4
-7 15 -5 11 2 20 0 20 -4 0 -12 -26 -32 -33 -26 -4 3 -5 2 -3 -1 3 -3 0 -18
-6 -33 -12 -31 -17 -281 -5 -281 5 0 6 -4 3 -8 -3 -5 2 -22 11 -38 10 -18 17
-61 19 -117 3 -85 24 -157 46 -157 5 0 6 -4 3 -10 -3 -5 -1 -10 5 -10 18 0 70
-47 62 -55 -4 -4 -2 -5 3 -4 16 5 55 -11 55 -22 0 -6 5 -7 10 -4 6 4 17 1 25
-5 8 -7 15 -9 15 -4 0 5 6 2 13 -6 7 -8 21 -16 32 -18 11 -2 48 -12 82 -22 34
-11 71 -20 83 -20 11 0 20 -3 20 -7 0 -5 10 -9 23 -9 49 -3 87 -9 87 -14 0 -3
21 -6 47 -8 26 -2 54 -8 62 -15 12 -10 13 -9 7 2 -7 10 -4 12 13 6 11 -3 49
-8 83 -10 35 -2 65 -4 68 -5 3 -1 29 -2 58 -1 49 0 52 -2 40 -17 -12 -16 -11
-16 6 -2 23 18 197 23 208 6 5 -8 8 -7 8 2 0 18 41 15 55 -4 10 -15 13 -15 30
2 18 19 19 19 12 0 -6 -14 -4 -17 8 -12 9 3 13 2 10 -4 -3 -6 -1 -10 5 -10 6
0 9 -4 6 -9 -4 -5 0 -12 6 -14 10 -4 9 -6 -1 -6 -10 -1 -11 -4 -2 -15 9 -10 7
-17 -6 -27 -9 -8 -14 -9 -10 -2 4 6 3 14 -3 18 -6 4 -8 10 -5 15 3 4 -2 10
-10 14 -8 3 -17 0 -21 -6 -4 -6 -3 -8 3 -5 6 4 13 0 17 -8 6 -17 -10 -30 -17
-15 -3 6 -4 5 -3 -2 2 -7 9 -12 15 -10 6 1 17 -9 23 -23 6 -14 18 -25 27 -25
11 0 10 3 -5 14 -10 8 -15 18 -11 23 12 11 37 -25 30 -43 -3 -8 -10 -11 -16
-7 -6 3 -7 1 -3 -6 6 -8 11 -9 20 -2 10 8 18 5 32 -10 11 -12 14 -23 8 -27
-11 -8 -12 -27 -1 -38 4 -4 7 0 7 9 0 9 4 18 8 21 4 2 8 -4 8 -15 0 -17 -9
-23 -28 -20 -5 0 -8 -4 -8 -10 0 -5 -3 -8 -7 -6 -5 3 -17 1 -28 -4 -18 -7 -18
-8 -2 -8 11 -1 15 -6 11 -13 -5 -7 -3 -8 6 -3 10 6 12 4 7 -9 -4 -9 -3 -15 2
-12 9 6 35 -43 32 -61 -1 -8 9 -13 25 -13 18 0 24 -4 21 -13 -3 -8 -1 -20 5
-28 8 -11 8 -9 4 5 -7 19 -6 19 13 2 11 -10 18 -23 15 -27 -3 -5 2 -6 10 -3
10 4 28 -6 48 -27 17 -19 28 -28 24 -21 -10 16 -7 15 42 -8 22 -11 46 -20 52
-20 5 0 10 -4 10 -8 0 -4 12 -9 26 -10 15 -1 33 -7 41 -13 7 -7 16 -9 20 -6 3
3 17 0 32 -7 14 -7 34 -12 44 -11 9 2 17 0 17 -5 0 -4 10 -8 23 -8 12 0 34 -2
50 -6 55 -12 148 -25 213 -30 12 -1 30 -8 40 -16 18 -14 18 -14 4 4 -12 16
-12 18 -1 11 27 -16 485 -20 521 -5 3 1 8 2 12 1 4 0 27 3 53 8 25 5 48 5 50
0 3 -4 17 -1 32 6 19 10 29 11 34 4 5 -8 8 -8 10 0 2 6 27 12 54 13 28 2 53 6
56 11 5 7 26 13 84 24 17 2 35 8 40 13 12 8 66 24 78 22 4 -1 7 2 7 8 0 6 3 9
8 8 4 -1 22 6 40 15 17 10 32 14 32 10 0 -5 5 0 11 10 5 9 17 17 24 17 8 0 15
4 15 8 0 5 10 14 23 21 24 13 64 69 59 83 -1 5 2 8 7 8 5 0 12 7 15 16 3 8 2
13 -2 10 -4 -2 -7 13 -7 35 0 21 4 39 8 39 5 0 4 6 -2 14 -8 10 -8 16 2 25 8
6 17 9 20 6 4 -3 4 -2 1 2 -3 5 -10 8 -16 8 -6 0 -12 8 -14 18 -1 9 2 15 7 11
5 -3 9 0 9 5 0 6 -6 11 -12 11 -9 0 -8 4 2 10 13 9 13 10 0 10 -13 0 -13 1 0
10 8 5 11 10 5 10 -5 0 -11 17 -12 37 -1 20 -7 39 -14 43 -8 6 -8 9 2 13 9 4
7 6 -5 6 -11 1 -17 4 -13 7 3 3 -6 17 -21 29 -23 19 -28 31 -27 67 1 24 5 49
9 56 4 7 3 12 -3 12 -6 0 -8 7 -5 15 4 8 1 15 -5 15 -6 0 -11 5 -11 11 0 5 6
7 13 4 6 -4 2 2 -11 12 -16 13 -21 24 -16 38 6 14 4 17 -7 11 -8 -4 -4 1 9 10
12 9 22 23 22 31 0 8 3 12 8 10 4 -3 13 1 20 9 10 11 10 14 0 14 -10 0 -10 2
-1 8 7 4 14 21 16 38 2 16 7 36 12 43 5 8 4 12 -1 8 -5 -3 -9 11 -9 31 1 26 6
37 20 43 13 5 15 8 5 8 -9 1 -11 4 -5 9 27 18 51 70 50 107 0 24 6 45 15 53
13 11 13 11 0 7 -11 -4 -16 1 -16 15 0 11 4 20 9 20 4 0 5 5 1 12 -10 16 -11
198 -1 198 4 0 3 9 -2 19 -8 14 -7 20 4 25 8 3 15 11 14 18 0 10 -2 10 -6 1
-10 -27 -18 -11 -18 40 0 36 4 54 15 59 13 6 13 7 0 7 -10 1 -15 12 -16 37 0
20 -6 39 -14 44 -7 4 -9 13 -6 19 4 6 12 9 17 6 5 -4 9 -1 9 5 0 7 -8 9 -20 5
-20 -6 -28 9 -11 20 6 3 4 16 -4 32 -16 31 -10 49 11 32 8 -6 14 -9 14 -6 0 4
19 -1 43 -9 23 -9 50 -17 59 -19 9 -2 26 -9 37 -15 12 -6 21 -9 21 -6 0 2 28
-6 62 -20 34 -13 64 -22 66 -19 3 3 11 0 18 -6 7 -5 25 -12 40 -15 16 -3 34
-10 41 -16 7 -6 13 -8 13 -5 0 3 15 0 34 -8 18 -8 36 -11 40 -8 3 4 6 2 6 -3
0 -5 8 -10 18 -11 28 -2 92 -27 92 -36 0 -5 4 -6 8 -3 5 3 31 -2 58 -10 71
-22 107 -23 151 -3 37 17 101 84 96 101 -2 4 2 8 7 8 6 0 10 9 10 19 0 11 5
23 10 26 6 3 10 15 10 26 0 13 4 18 12 13 6 -4 8 -3 5 3 -11 17 25 103 43 103
10 0 11 3 3 8 -8 5 -5 22 11 60 12 29 25 50 28 47 3 -3 4 6 3 20 -2 14 1 25 6
25 5 0 9 9 9 20 0 11 5 20 12 20 6 0 8 3 5 7 -4 3 -2 12 4 20 6 7 9 13 6 13
-6 0 3 23 46 120 6 14 11 30 12 36 0 6 5 18 12 25 6 8 11 18 11 22 0 7 25 74
56 149 6 16 15 28 19 28 5 0 6 4 3 9 -6 10 28 94 35 87 2 -2 5 7 6 21 0 14 6
35 12 47 12 25 40 94 40 101 0 3 7 18 15 34 9 16 12 31 9 35 -4 3 -1 6 5 6 7
0 12 9 12 19 0 10 7 22 16 25 8 3 12 10 9 16 -9 15 5 51 17 44 7 -4 8 -2 4 5
-11 17 3 53 17 45 7 -4 9 -4 5 0 -3 4 -2 22 4 39 5 18 10 37 12 42 1 6 7 19
13 30 6 11 12 23 13 27 1 4 4 17 7 28 3 11 10 20 15 20 5 0 7 4 4 8 -3 5 1 19
8 33 7 13 13 26 13 29 1 3 7 19 14 35 7 17 13 35 15 40 1 6 8 24 15 40 7 17
13 32 13 35 1 3 4 10 7 15 4 6 12 27 18 48 7 20 16 35 21 32 4 -3 6 3 3 14 -3
10 0 22 6 25 6 4 11 16 11 26 0 10 7 25 15 34 9 8 14 19 13 23 -4 15 24 83 32
78 4 -3 6 5 2 17 -4 16 -2 19 8 13 9 -5 11 -4 6 4 -9 14 13 73 24 66 5 -3 6 4
3 15 -3 12 0 20 6 20 7 0 9 4 6 10 -3 5 1 20 10 33 8 13 12 27 8 30 -3 4 0 7
7 7 7 0 10 3 7 7 -4 3 0 17 9 31 8 13 13 26 10 29 -3 3 1 15 9 27 8 11 15 28
15 38 0 10 5 18 12 18 6 0 9 3 5 6 -5 5 34 107 64 169 5 11 11 31 14 44 2 12
10 30 17 38 7 9 13 21 13 27 1 6 7 25 13 41 18 44 24 60 20 60 -1 0 5 11 15
25 9 13 17 31 17 40 0 8 10 35 22 60 12 25 22 47 23 50 6 25 21 62 38 100 12
25 22 47 22 50 12 45 18 59 25 55 5 -3 6 5 2 17 -4 16 -2 19 8 13 9 -5 11 -4
6 4 -4 6 -2 18 4 26 7 8 10 15 6 15 -3 0 6 26 20 58 14 31 30 72 36 90 5 20
13 30 20 26 6 -4 8 -3 5 3 -10 16 13 74 26 66 6 -3 7 -1 3 6 -8 13 14 82 25
75 4 -2 5 6 1 18 -4 16 -2 19 8 13 9 -5 11 -4 6 3 -4 6 2 31 12 54 11 24 23
53 27 66 3 12 11 20 16 17 5 -3 6 0 3 8 -3 8 3 32 12 53 9 22 18 42 18 46 1 3
4 10 9 14 4 4 7 16 7 26 0 10 4 18 8 18 5 0 9 6 10 13 0 6 7 32 15 57 15 48
13 96 -6 119 -10 12 -9 13 2 6 9 -5 7 2 -5 18 -10 15 -23 27 -27 27 -5 0 -6 4
-3 9 7 11 -126 73 -187 85 -6 2 -21 6 -32 10 -11 5 -27 10 -35 13 -8 4 -24 8
-35 10 -11 2 -22 8 -23 13 -2 6 -7 8 -12 5 -7 -4 -50 6 -95 25 -11 4 -40 14
-65 21 -25 7 -51 17 -57 22 -7 5 -13 7 -13 3 0 -3 -17 1 -37 10 -21 8 -45 17
-53 19 -17 4 -107 33 -130 42 -8 4 -17 7 -20 7 -48 11 -100 31 -100 38 0 6 -7
7 -16 4 -8 -3 -28 1 -44 9 -16 8 -38 15 -50 15 -12 0 -19 3 -17 8 3 4 -6 8
-20 9 -14 0 -28 5 -32 10 -3 4 -17 9 -31 11 -14 1 -34 6 -45 11 -32 14 -109
36 -117 33 -5 -1 -8 3 -8 10 0 6 -3 9 -6 6 -3 -4 -21 0 -40 8 -19 8 -34 12
-34 9 0 -3 -10 0 -22 7 -25 13 -30 15 -54 17 -8 0 -12 5 -9 11 3 5 0 7 -8 4
-7 -2 -27 0 -43 6 -16 6 -30 11 -32 10 -1 0 -9 5 -16 12 -16 15 -10 32 6 22 7
-5 8 -2 2 7 -5 8 -9 50 -9 94 -1 95 -2 98 -40 141 -63 69 -69 70 -377 69 -189
-1 -278 2 -278 9 0 8 -3 8 -8 0 -10 -14 -225 -14 -234 0 -5 8 -8 7 -8 -1 0
-23 -135 -1 -225 37 -42 18 -87 19 -130 4z m-2307 -4299 c-10 -10 -49 -14 -43
-4 4 5 10 7 15 4 5 -3 12 0 15 6 4 5 10 8 13 5 3 -3 3 -8 0 -11z m-128 -15 c0
-5 -2 -10 -4 -10 -3 0 -8 5 -11 10 -3 6 -1 10 4 10 6 0 11 -4 11 -10z m650
-1914 c0 -3 -4 -8 -10 -11 -5 -3 -10 -1 -10 4 0 6 5 11 10 11 6 0 10 -2 10 -4z
m132 -278 c-8 -8 -8 -17 -1 -31 7 -12 7 -17 1 -13 -6 3 -12 2 -14 -4 -1 -5
-10 4 -20 19 -15 28 -15 29 3 26 10 -2 21 0 24 6 4 5 9 9 13 9 3 0 1 -5 -6
-12z m3 -67 c-3 -5 -1 -12 5 -16 13 -8 13 -25 -1 -25 -5 0 -8 4 -4 9 3 5 1 12
-5 16 -10 6 -5 25 6 25 3 0 3 -4 -1 -9z"/>
<path d="M2166 647 c3 -10 9 -15 12 -12 3 3 0 11 -7 18 -10 9 -11 8 -5 -6z"/>
<path d="M1570 2939 c0 -5 5 -7 10 -4 6 3 10 8 10 11 0 2 -4 4 -10 4 -5 0 -10
-5 -10 -11z"/>
<path d="M1716 2933 c-6 -14 -5 -15 5 -6 7 7 10 15 7 18 -3 3 -9 -2 -12 -12z"/>
<path d="M1516 2913 c-6 -14 -5 -15 5 -6 7 7 10 15 7 18 -3 3 -9 -2 -12 -12z"/>
<path d="M1635 2919 c-4 -6 -5 -12 -2 -15 2 -3 7 2 10 11 7 17 1 20 -8 4z"/>
<path d="M1683 2911 c-10 -15 -8 -18 12 -17 13 1 28 6 32 10 4 5 3 6 -4 2 -6
-3 -16 0 -20 9 -7 12 -10 12 -20 -4z"/>
<path d="M1455 2910 c-4 -6 -11 -8 -16 -5 -5 3 -6 -2 -2 -11 5 -13 3 -15 -8
-9 -11 6 -12 5 -2 -5 7 -8 20 -15 29 -16 12 -2 14 0 5 9 -13 13 -15 31 -3 23
5 -3 9 1 9 9 0 18 -3 19 -12 5z"/>
<path d="M1655 2909 c-4 -6 -5 -12 -2 -15 2 -3 7 2 10 11 7 17 1 20 -8 4z"/>
<path d="M1274 2873 c2 -10 -2 -24 -8 -32 -9 -12 -8 -13 4 -6 8 5 26 9 39 10
18 0 25 6 26 24 2 21 0 22 -10 8 -7 -9 -16 -13 -20 -9 -5 4 -5 1 0 -7 5 -9 3
-12 -6 -9 -8 3 -14 10 -14 16 0 5 -3 13 -7 17 -3 4 -5 -1 -4 -12z"/>
<path d="M1241 2863 c1 -4 1 -15 0 -23 -1 -13 -2 -13 -11 0 -6 9 -10 10 -10 3
0 -21 19 -24 30 -4 7 14 7 22 0 26 -6 4 -10 3 -9 -2z"/>
<path d="M1105 2804 c-15 -11 -21 -11 -28 -1 -6 9 -7 8 -4 -3 2 -8 11 -13 18
-11 8 2 19 4 26 5 17 3 26 13 16 19 -4 3 -17 -1 -28 -9z"/>
<path d="M976 2782 c-3 -5 1 -9 9 -9 8 0 12 4 9 9 -3 4 -7 8 -9 8 -2 0 -6 -4
-9 -8z"/>
<path d="M1042 2774 c-7 -8 -8 -14 -3 -14 10 0 25 19 20 25 -2 1 -10 -3 -17
-11z"/>
<path d="M946 2738 c3 -4 9 -8 15 -8 5 0 9 4 9 8 0 5 -7 9 -15 9 -8 0 -12 -4
-9 -9z"/>
<path d="M910 2699 c0 -5 5 -7 10 -4 6 3 10 8 10 11 0 2 -4 4 -10 4 -5 0 -10
-5 -10 -11z"/>
<path d="M880 2680 c-9 -6 -10 -10 -3 -10 6 0 15 5 18 10 8 12 4 12 -15 0z"/>
<path d="M810 2639 c0 -5 5 -7 10 -4 6 3 10 8 10 11 0 2 -4 4 -10 4 -5 0 -10
-5 -10 -11z"/>
<path d="M4275 2180 c-3 -5 -1 -10 4 -10 6 0 11 5 11 10 0 6 -2 10 -4 10 -3 0
-8 -4 -11 -10z"/>
<path d="M815 1920 c3 -5 8 -10 11 -10 2 0 4 5 4 10 0 6 -5 10 -11 10 -5 0 -7
-4 -4 -10z"/>
<path d="M835 1900 c-3 -5 -1 -10 4 -10 6 0 11 5 11 10 0 6 -2 10 -4 10 -3 0
-8 -4 -11 -10z"/>
<path d="M756 1827 c3 -10 9 -15 12 -12 3 3 0 11 -7 18 -10 9 -11 8 -5 -6z"/>
<path d="M4270 1759 c0 -5 5 -7 10 -4 6 3 10 8 10 11 0 2 -4 4 -10 4 -5 0 -10
-5 -10 -11z"/>
<path d="M4195 1420 c-3 -5 -1 -10 4 -10 6 0 11 5 11 10 0 6 -2 10 -4 10 -3 0
-8 -4 -11 -10z"/>
<path d="M4195 1351 c-3 -5 -2 -12 3 -15 5 -3 9 1 9 9 0 17 -3 19 -12 6z"/>
<path d="M4115 1180 c-3 -5 -1 -10 4 -10 6 0 11 5 11 10 0 6 -2 10 -4 10 -3 0
-8 -4 -11 -10z"/>
<path d="M4150 1000 c-9 -6 -10 -10 -3 -10 6 0 15 5 18 10 8 12 4 12 -15 0z"/>
<path d="M4210 960 c0 -5 5 -10 11 -10 5 0 7 5 4 10 -3 6 -8 10 -11 10 -2 0
-4 -4 -4 -10z"/>
<path d="M2055 909 c-4 -5 -10 -7 -15 -4 -5 3 -11 1 -14 -4 -7 -11 13 -9 32 2
6 5 12 4 12 -1 0 -6 7 -12 14 -15 10 -4 13 -1 10 8 -7 18 -32 27 -39 14z"/>
<path d="M4230 861 c0 -6 4 -13 10 -16 6 -3 7 1 4 9 -7 18 -14 21 -14 7z"/>
<path d="M2070 796 c0 -2 8 -10 18 -17 15 -13 16 -12 3 4 -13 16 -21 21 -21
13z"/>
<path d="M2142 765 c7 -12 -17 -36 -28 -27 -4 4 -4 1 0 -6 5 -7 2 -21 -6 -31
-7 -9 -3 -7 8 5 27 28 41 19 17 -10 -14 -15 -14 -18 -2 -8 9 6 18 9 22 6 3 -3
4 2 3 13 -2 10 1 23 5 29 6 7 3 17 -8 25 -9 8 -14 10 -11 4z"/>
<path d="M2130 599 c0 -5 5 -7 10 -4 6 3 10 8 10 11 0 2 -4 4 -10 4 -5 0 -10
-5 -10 -11z"/>
<path d="M2146 582 c-3 -5 1 -9 9 -9 8 0 12 4 9 9 -3 4 -7 8 -9 8 -2 0 -6 -4
-9 -8z"/>
</g>
</svg>
